# xmcd
# 
# Track frame offsets:
#     150
#     16487
#     59442
#     91037
#     119847
#     156087
# 
# Disc length: 2557
# 
# Revision: 3
# Processed by: cddbd v1.5.2PL0 Copyright (c) Steve Scherf et al.
# Submitted via: fre:ac v1.0.27
# 
DISCID=4809fb06
DTITLE=The Brecker Brothers - Heavy Metal Be-Bop
DYEAR=1978
DGENRE=Jazz
TTITLE0=East River
TTITLE1=Inside Out
TTITLE2=Some Skunk Funk
TTITLE3=Sponge
TTITLE4=Funky Sea, Funky Dew
TTITLE5=Squids
EXTD=YEAR: 1978
EXTT0=
EXTT1=
EXTT2=
EXTT3=
EXTT4=
EXTT5=
PLAYORDER=
